<?xml version="1.0" encoding="UTF-8" standalone="no"?>
<!-- Generator: Adobe Illustrator 27.2.0, SVG Export Plug-In . SVG Version: 6.00 Build 0)  -->

<svg
   version="1.0"
   id="Logo"
   x="0px"
   y="0px"
   viewBox="0 0 1659.0045 336.00232"
   xml:space="preserve"
   width="1659.0045"
   height="336.00232"
   xmlns="http://www.w3.org/2000/svg"
   xmlns:svg="http://www.w3.org/2000/svg"><defs
   id="defs9" />
<path
   style="fill:#0a2e80;stroke-width:3.5"
   d="m 842.70364,254.98962 -75.25,-182.000006 c -1.62355,-3.925537 -5.4551,-6.487306 -9.70361,-6.487306 -4.24855,0 -8.0801,2.561769 -9.70365,6.487306 L 672.79639,254.98962 c -2.21484,5.35937 0.3332,11.49975 5.69093,13.71631 5.35594,2.20971 11.49977,-0.33327 13.71632,-5.69092 l 19.02439,-46.0127 h 93.04396 l 19.02439,46.0127 c 1.67311,4.04687 5.58499,6.49072 9.70704,6.49072 1.33644,0 2.69679,-0.25805 4.00929,-0.7998 5.35766,-2.21656 7.90576,-8.35694 5.69093,-13.71631 z m -122.79309,-58.98731 37.83948,-91.51953 37.83944,91.51953 z"
   id="path1" />
<g
   id="g2"
   transform="matrix(3.5,0,0,3.5,-3.7910964,-3.4976946)">
	<path
   style="fill:#0a2e80"
   d="m 392.08316,78 h -15 c -1.65674,0 -3,-1.343262 -3,-3 V 23 c 0,-1.656738 1.34326,-3 3,-3 h 15 c 15.74756,0 28.0835,12.738281 28.0835,29 0,16.261719 -12.33594,29 -28.0835,29 z m -12,-6 h 12 c 12.3833,0 22.0835,-10.103027 22.0835,-23 0,-12.896973 -9.7002,-23 -22.0835,-23 h -12 z"
   id="path2" />
</g>
<g
   id="g3"
   transform="matrix(3.5,0,0,3.5,-3.7910964,-3.4976946)">
	<linearGradient
   id="SVGID_1_"
   gradientUnits="userSpaceOnUse"
   x1="14.083171"
   y1="57"
   x2="84.083168"
   y2="57">
		<stop
   offset="0"
   style="stop-color:#F33E1C"
   id="stop2" />
		<stop
   offset="0.9997525"
   style="stop-color:#F98700"
   id="stop3" />
	</linearGradient>
	<path
   style="fill:url(#SVGID_1_)"
   d="m 49.083172,92 c -19.299318,0 -35,-15.700684 -35,-35 0,-19.299316 15.700682,-35 35,-35 19.299317,0 34.999996,15.700684 34.999996,35 0,19.299316 -15.700684,35 -34.999996,35 z m 0,-62 C 34.195476,30 22.08317,42.112305 22.08317,57 c 0,14.887695 12.112306,27 27.000002,27 14.887695,0 26.999996,-12.112305 26.999996,-27 0,-14.887695 -12.112301,-27 -26.999996,-27 z"
   id="path3" />
</g>
<g
   id="g4"
   transform="matrix(3.5,0,0,3.5,-3.7910964,-3.4976946)">
	<path
   style="fill:#0a2e80"
   d="m 93.083168,97 c -2.208984,0 -4,-1.791016 -4,-4 V 16.56543 L 52.22868,63.471191 C 51.469891,64.436523 50.310711,65 49.083172,65 47.855633,65 46.696453,64.436523 45.937664,63.471191 L 9.0831709,16.56543 V 93 c 0,2.208984 -1.7910161,4 -4.0000005,4 -2.2089844,0 -4,-1.791016 -4,-4 V 5 c 0,-1.7050781 1.0810548,-3.2231445 2.6923828,-3.7802734 1.613281,-0.5576172 3.3999021,-0.031738 4.453125,1.309082 L 49.08317,54.525879 89.93766,2.5288086 C 90.991859,1.1884766 92.776527,0.6611328 94.390785,1.2197266 96.002113,1.7768555 97.083168,3.2949219 97.083168,5 v 88 c 0,2.208984 -1.791016,4 -4,4 z"
   id="path4" />
</g>
<g
   id="g5"
   transform="matrix(3.5,0,0,3.5,-3.7910964,-3.4976946)">
	<path
   style="fill:#f98700"
   d="m 74.156898,96.905762 c -1.185546,0 -2.358886,-0.524414 -3.147949,-1.528809 L 56.942547,77.474609 c -1.365235,-1.736816 -1.063477,-4.251464 0.673828,-5.61621 1.737305,-1.365235 4.252441,-1.063477 5.616211,0.673828 L 77.298988,90.43457 c 1.365235,1.736817 1.063477,4.251465 -0.673828,5.616211 -0.732422,0.576172 -1.603515,0.854981 -2.468262,0.854981 z"
   id="path5" />
</g>
<g
   id="g6"
   transform="matrix(3.5,0,0,3.5,-3.7910964,-3.4976946)">
	<path
   style="fill:#0a2e80"
   d="m 180.08318,78 c -1.65674,0 -3,-1.343262 -3,-3 V 31.655273 L 156.43962,57.856445 C 155.87077,58.578613 155.00212,59 154.08318,59 c -0.91895,0 -1.7876,-0.421387 -2.35645,-1.143555 L 131.08318,31.655273 V 75 c 0,1.656738 -1.34327,3 -3,3 -1.65675,0 -3.00001,-1.343262 -3.00001,-3 V 23 c 0,-1.27832 0.81006,-2.416016 2.01758,-2.834473 1.20655,-0.420898 2.54737,-0.02637 3.33887,0.978028 l 23.64356,30.008789 23.64355,-30.008789 c 0.79102,-1.004395 2.13037,-1.398926 3.33887,-0.978028 1.20752,0.418457 2.01758,1.556153 2.01758,2.834473 v 52 c 0,1.656738 -1.34327,3 -3,3 z"
   id="path6" />
</g>
<path
   style="fill:#0a2e80;stroke-width:3.5"
   d="m 968.74714,168.00231 65.07556,-84.598145 c 3.5359,-4.595461 2.6763,-11.188723 -1.9209,-14.724612 -4.6006,-3.537597 -11.1887,-2.677976 -14.7246,1.920902 L 955.49996,150.78087 893.82271,70.600455 c -3.53755,-4.598878 -10.1325,-5.455079 -14.72457,-1.920902 -4.59714,3.535889 -5.45678,10.129151 -1.92087,14.724612 l 65.0755,84.598145 -65.0755,84.59815 c -3.53591,4.59546 -2.67627,11.18872 1.92087,14.72461 1.90894,1.46801 4.15968,2.17724 6.39503,2.17724 3.14797,0 6.26171,-1.40991 8.32954,-4.09814 l 61.67725,-80.18043 61.67724,80.18043 c 2.0679,2.68823 5.1817,4.09814 8.3296,4.09814 2.2354,0 4.4878,-0.70923 6.395,-2.17724 4.5972,-3.53589 5.4568,-10.12915 1.9209,-14.72461 z"
   id="path7" />
<path
   style="fill:#0a2e80;stroke-width:3.5"
   d="m 1243.119,228.93487 c 12.788,-16.98154 20.381,-38.08536 20.381,-60.93256 0,-55.96753 -45.5325,-101.500002 -101.5,-101.500002 -55.9676,0 -101.5,45.532472 -101.5,101.500002 0,55.96753 45.5324,101.5 101.5,101.5 25.4692,0 48.7584,-9.45068 66.598,-25.00158 l 16.0792,20.90344 c 2.0679,2.68823 5.1817,4.09814 8.3296,4.09814 2.2354,0 4.4878,-0.70923 6.395,-2.17724 4.5972,-3.53589 5.4568,-10.12744 1.9209,-14.72461 z M 1162,248.50231 c -44.3875,0 -80.5,-36.11255 -80.5,-80.5 0,-44.38745 36.1125,-80.500002 80.5,-80.500002 44.3874,0 80.5,36.112552 80.5,80.500002 0,16.00934 -4.7168,30.92898 -12.8061,43.47955 l -17.0482,-22.16339 c -3.5359,-4.59717 -10.1309,-5.45679 -14.7246,-1.9209 -4.5972,3.53589 -5.4568,10.12745 -1.9209,14.72461 l 19.7815,25.7168 c -14.2666,12.83597 -33.1252,20.66333 -53.7817,20.66333 z"
   id="path8" />
<path
   style="fill:#0a2e80;stroke-width:3.5"
   d="m 1658.2053,254.98962 -75.25,-182.000006 c -1.6236,-3.925537 -5.4551,-6.487306 -9.7036,-6.487306 -4.2486,0 -8.0801,2.561769 -9.7036,6.487306 l -75.2517,182.000006 c -2.2149,5.35937 0.3332,11.49975 5.6909,13.71631 1.3125,0.54174 2.6711,0.7998 4.0092,0.7998 4.1204,0 8.034,-2.44385 9.7054,-6.49072 l 19.0252,-46.0127 h 93.0465 l 19.0245,46.0127 c 2.2182,5.35937 8.3569,7.90063 13.7163,5.69092 5.3593,-2.21656 7.9057,-8.35694 5.6909,-13.71631 z m -122.795,-58.98731 37.8414,-91.51953 37.8395,91.51953 z"
   id="path9" />
</svg>
