<?xml version="1.0" encoding="utf-8"?>
<!-- Generator: Adobe Illustrator 27.5.0, SVG Export Plug-In . SVG Version: 6.00 Build 0)  -->
<svg version="1.1" xmlns="http://www.w3.org/2000/svg" xmlns:xlink="http://www.w3.org/1999/xlink" x="0px" y="0px"
	 viewBox="0 0 500 500" style="enable-background:new 0 0 500 500;" xml:space="preserve">
<g id="BACKGROUND">
	<rect style="fill:#FDFAF5;" width="500" height="500"/>
	<line style="fill:none;stroke:#D3D9D9;stroke-miterlimit:10;" x1="0" y1="23.75" x2="500" y2="23.75"/>
	<line style="fill:none;stroke:#D3D9D9;stroke-miterlimit:10;" x1="0" y1="73.75" x2="500" y2="73.75"/>
	<line style="fill:none;stroke:#D3D9D9;stroke-miterlimit:10;" x1="0" y1="123.75" x2="500" y2="123.75"/>
	<line style="fill:none;stroke:#D3D9D9;stroke-miterlimit:10;" x1="0" y1="173.75" x2="500" y2="173.75"/>
	<line style="fill:none;stroke:#D3D9D9;stroke-miterlimit:10;" x1="0" y1="223.75" x2="500" y2="223.75"/>
	<line style="fill:none;stroke:#D3D9D9;stroke-miterlimit:10;" x1="0" y1="273.75" x2="500" y2="273.75"/>
	<line style="fill:none;stroke:#D3D9D9;stroke-miterlimit:10;" x1="0" y1="323.75" x2="500" y2="323.75"/>
	<line style="fill:none;stroke:#D3D9D9;stroke-miterlimit:10;" x1="0" y1="373.75" x2="500" y2="373.75"/>
	<line style="fill:none;stroke:#D3D9D9;stroke-miterlimit:10;" x1="0" y1="423.75" x2="500" y2="423.75"/>
	<line style="fill:none;stroke:#D3D9D9;stroke-miterlimit:10;" x1="0" y1="473.75" x2="500" y2="473.75"/>
	<line style="fill:none;stroke:#D3D9D9;stroke-miterlimit:10;" x1="0" y1="48.75" x2="500" y2="48.75"/>
	<line style="fill:none;stroke:#D3D9D9;stroke-miterlimit:10;" x1="0" y1="98.75" x2="500" y2="98.75"/>
	<line style="fill:none;stroke:#D3D9D9;stroke-miterlimit:10;" x1="0" y1="148.75" x2="500" y2="148.75"/>
	<line style="fill:none;stroke:#D3D9D9;stroke-miterlimit:10;" x1="0" y1="198.75" x2="500" y2="198.75"/>
	<line style="fill:none;stroke:#D3D9D9;stroke-miterlimit:10;" x1="0" y1="248.75" x2="500" y2="248.75"/>
	<line style="fill:none;stroke:#D3D9D9;stroke-miterlimit:10;" x1="0" y1="298.75" x2="500" y2="298.75"/>
	<line style="fill:none;stroke:#D3D9D9;stroke-miterlimit:10;" x1="0" y1="348.75" x2="500" y2="348.75"/>
	<line style="fill:none;stroke:#D3D9D9;stroke-miterlimit:10;" x1="0" y1="398.75" x2="500" y2="398.75"/>
	<line style="fill:none;stroke:#D3D9D9;stroke-miterlimit:10;" x1="0" y1="448.75" x2="500" y2="448.75"/>
	<line style="fill:none;stroke:#DFBBAC;stroke-miterlimit:10;" x1="57.576" y1="0" x2="57.576" y2="500"/>
</g>
<g id="OBJECTS">
	<path style="fill:#0CFF35;" d="M88.099,57.782c-8.405,1.197-12.425,2.385-18.419,5.442C54.458,70.987,47.437,83.61,52.572,93.983
		c1.754,3.543,4.948,6.397,9.642,8.618c5.731,2.712,11.892,3.9,22.017,4.249l4.135,0.142l0.96,2.57
		c1.227,3.286,4.707,9.197,5.723,9.723c0.394,0.203,1.118,0.324,1.676,0.28c0.782-0.062,1.038-0.197,1.252-0.659
		c0.147-0.319,0.707-2.749,1.24-5.387c0.746-3.688,2.404-10.232,2.719-10.729c0.023-0.037,0.937-0.225,2.01-0.414
		c6.393-1.128,12.474-4.893,17.021-10.539c2.813-3.493,4.099-6.303,4.541-9.925c0.437-3.576-0.151-6.663-1.897-9.947
		c-3.789-7.128-11.596-11.796-22.973-13.737C98.515,57.866,89.71,57.552,88.099,57.782L88.099,57.782z M98.068,61.413
		c4.314,0.525,8.839,2.17,11.802,4.291c1.833,1.312,4.295,3.856,5.387,5.568c1.784,2.795,2.537,5.387,2.563,8.829
		c0.049,6.393-2.729,11.673-8.375,15.915c-2.981,2.24-5.633,3.518-9.008,4.341c-0.939,0.229-1.868,0.567-2.045,0.744
		c-0.178,0.178-0.595,1.755-0.925,3.498c-0.969,5.119-1.85,8.892-2.082,8.917c-0.123,0.013-1.102-1.854-2.179-4.156
		c-1.077-2.302-2.157-4.348-2.403-4.554c-0.432-0.361-1.542-0.493-6.929-0.823c-9.701-0.593-13.906-1.506-18.352-3.981
		c-2.124-1.182-4.949-4.007-5.911-5.909c-1.99-3.936-1.941-8.673,0.139-13.255c3.262-7.189,11.875-14.168,21.531-17.447
		C86.422,61.646,93.309,60.834,98.068,61.413L98.068,61.413z"/>
	<path style="fill:#FDD044;" d="M160.857,64.134c-11.042,0.577-12.222,0.751-13.325,1.974c-0.562,0.622-0.645,0.905-0.645,2.179
		c0,0.805-0.167,1.937-0.37,2.515c-0.596,1.69-0.915,14.619-0.596,24.118c0.417,12.406,1.127,15.015,4.431,16.27
		c3.028,1.15,5.722,1.467,16.988,1.998c2.682,0.126,3.247,0.215,3.386,0.532c0.092,0.208,0.243,3.453,0.335,7.186
		c0.093,3.778,0.278,7.075,0.416,7.41c0.299,0.725,0.713,0.916,1.987,0.916c0.846,0,1.089-0.134,2.031-1.118
		c0.948-0.99,6.025-9.142,7.504-12.048l0.546-1.073l5.566-0.163c6.438-0.189,11.176-0.656,12.361-1.22
		c2.289-1.088,3.285-4.116,4.123-12.543c0.654-6.572,0.292-23.497-0.613-28.634c-0.689-3.912-2.186-5.567-6.014-6.652
		c-2.104-0.596-4.18-0.84-10.26-1.206C183.232,64.245,164.43,63.947,160.857,64.134L160.857,64.134z M179.298,67.171
		c12.383,0.562,15.811,0.933,17.189,1.86c2.268,1.526,3.069,7.895,3.087,24.547c0.014,12.495-0.395,18.089-1.344,18.41
		c-0.16,0.054-3.845,0.207-8.204,0.34c-9.589,0.294-9.615,0.3-11.173,2.597c-0.565,0.832-1.699,2.85-2.506,4.459l-1.475,2.939
		l-0.112-4.694c-0.062-2.593-0.224-4.964-0.363-5.298c-0.423-1.019-1.761-1.387-5.047-1.392c-5.566-0.008-13.549-0.813-15.401-1.554
		c-1.495-0.598-1.515-0.787-1.207-11.695c0.288-10.215,0.095-17.534-0.601-22.733c-0.347-2.593-0.348-3.057-0.014-4.951
		c0.201-1.14,0.511-2.231,0.682-2.399C153.551,66.877,167.674,66.643,179.298,67.171L179.298,67.171z"/>
	<path style="fill:#0CFF35;" d="M324.578,64.633c-0.832,0.885-3.958,5.231-6.626,9.209c-3.418,5.096-12.489,20.545-14.753,25.124
		l-0.983,1.989l-1.997-3.867c-4.824-9.343-5.917-10.533-9.873-10.755c-1.475-0.082-2.198-0.012-2.995,0.291
		c-2.437,0.927-2.254,1.724,3.055,13.258c1.512,3.286,3.289,7.212,3.935,8.695c1.421,3.263,1.791,3.813,3.069,4.564
		c2.436,1.43,7.718,1.18,9.045-0.428c0.153-0.186,0.315-1.162,0.362-2.191c0.157-3.396,1.685-7.376,6.464-16.832
		c2.282-4.515,5.691-10.979,7.557-14.328c5.379-9.656,7.457-13.576,7.616-14.373c0.183-0.916-0.331-1.252-1.918-1.252
		C325.552,63.739,325.317,63.847,324.578,64.633L324.578,64.633z"/>
	<path style="fill:#E6008E;" d="M260.349,69.941c-1.018,0.442-3.789,3.298-8.384,8.64c-2.192,2.548-4.075,4.568-4.167,4.47
		c-0.092-0.098-1.284-1.609-2.645-3.353c-5.669-7.265-7.103-8.429-10.398-8.442c-1.408-0.005-2.334,0.292-3.085,0.993
		c-0.677,0.632-0.667,1.391,0.038,2.911c1.098,2.365,6.723,10.752,9.251,13.792l0.948,1.14l-2.065,2.615
		c-6.266,7.935-10.62,14.799-11.97,18.866c-0.831,2.503-0.619,3.244,1.003,3.505c1.65,0.265,1.817,0.117,5.848-5.226
		c3.053-4.046,9.273-12.423,11.136-14.999c0.324-0.448,0.448-0.358,2.731,1.989c1.319,1.356,4.167,4.459,6.348,6.918
		c2.181,2.459,4.177,4.587,4.448,4.744c0.655,0.379,3.398,0.388,4.135,0.015c1.343-0.68,1.182-0.992-5.144-10.023
		c-1.581-2.258-3.289-4.854-3.786-5.756c-0.496-0.9-1.487-2.492-2.191-3.521l-1.285-1.878l0.465-0.827
		c1.207-2.146,9.468-13.161,11.231-14.976c0.521-0.536,0.956-1.085,0.956-1.207C263.769,69.634,261.623,69.388,260.349,69.941
		L260.349,69.941z"/>
	<g>
		<path style="fill:#E6008E;" d="M370.682,42.071c-15.647,0.427-15.915,0.444-17.346,1.096c-1.969,0.897-2.068,1.238-1.876,6.446
			c0.141,3.822,0.11,4.37-0.342,6.058c-0.902,3.366-1.086,6.035-1.069,15.468c0.032,17.323,1.041,38.452,1.922,40.257
			c0.294,0.603,0.761,1.005,1.722,1.483c1.932,0.961,4.94,1.207,10.752,0.881c11.122-0.623,22.487-0.549,51.635,0.337
			c6.135,0.187,18.34,0.465,27.125,0.618c15.11,0.264,16.043,0.257,17.312-0.144c1.833-0.578,3.109-1.727,3.602-3.243
			c0.349-1.073,0.412-2.794,0.497-13.546c0.119-15.043-0.316-49.31-0.641-50.428c-0.774-2.663-4.732-4.022-13.047-4.48
			C445.37,42.568,377.41,41.887,370.682,42.071L370.682,42.071z M397.192,46.392c3.616,0.124,16.966,0.325,29.684,0.448
			c22.532,0.216,28.218,0.415,28.797,1.007c0.171,0.175,0.422,2.023,0.631,4.638c0.271,3.401,0.353,9.913,0.378,29.919
			c0.028,22.822-0.074,28.452-0.524,28.902c-0.049,0.049-3.196-0.066-6.996-0.257c-3.802-0.191-13.97-0.578-22.621-0.861
			c-19.514-0.639-51.664-0.753-61.448-0.218c-3.331,0.182-6.095,0.27-6.169,0.196c-0.219-0.218-0.125-10.171,0.154-16.34
			c0.502-11.109,0.27-27.75-0.462-33.149c-0.202-1.489,0.385-8.002,1.062-11.78l0.408-2.28l2.481-0.034
			c1.374-0.019,3.688-0.106,5.186-0.197C371.902,46.136,389.838,46.139,397.192,46.392L397.192,46.392z"/>
		<path style="fill:#E6008E;" d="M373.029,117.046c-4.85,0.21-12.753,0.839-15.49,1.232c-1.632,0.234-1.887,0.334-1.949,0.762
			c-0.111,0.768,1.345,1.914,2.686,2.116c0.602,0.09,6.706-0.025,13.546-0.255c23.663-0.797,53.445-0.088,79.017,1.88
			c4.895,0.377,12.775,0.561,13.032,0.305c0.257-0.257-0.559-1.361-1.185-1.602c-0.53-0.204-8.583-1.209-12.093-1.509
			c-0.837-0.072-3.889-0.336-6.795-0.589C419.679,117.285,390.096,116.307,373.029,117.046L373.029,117.046z"/>
	</g>
	<path style="fill:#042F92;" d="M278.424,128.486c-0.721,0.745-2.231,2.481-3.364,3.867c-1.129,1.38-4.659,5.566-7.823,9.276
		c-3.165,3.711-6.286,7.538-6.918,8.483c-0.987,1.475-1.151,1.887-1.151,2.883c0,1.703-0.156,1.431,9.69,16.966
		c1.311,2.068,3.435,5.488,4.727,7.611c1.293,2.124,2.628,4.064,2.973,4.32c0.843,0.625,3.129,0.693,4.001,0.12
		c0.544-0.358,0.598-0.572,0.849-3.389c0.148-1.661,0.328-5.108,0.402-7.701c0.074-2.593,0.224-4.784,0.335-4.895
		c0.297-0.297,4.784-0.844,6.996-0.854c2.839-0.012,5.226,0.539,7.801,1.803c1.811,0.888,2.563,1.433,4.135,2.997
		c1.682,1.672,2.084,2.246,3.219,4.593c2.422,5.01,3.459,11.176,4.022,23.917c0.609,13.769,0.601,13.671,1.224,14.976
		c0.321,0.671,0.821,1.363,1.102,1.524c0.891,0.51,13.769,0.33,18.217-0.254c3.576-0.47,5.504-0.991,5.688-1.538
		c0.134-0.398-0.226-15.289-0.519-21.481c-0.138-2.911-0.357-8.047-0.486-11.4c-0.129-3.353-0.389-7.18-0.576-8.494
		c-1.833-12.831-5.781-20.346-12.533-23.857c-2.966-1.542-7.421-2.732-12.004-3.207c-2.503-0.259-18.597-0.769-22.844-0.723
		l-2.325,0.025l0.145-4.292c0.08-2.369,0.215-5.884,0.302-7.846l0.157-3.554l-0.615-0.615c-0.53-0.53-0.816-0.615-2.068-0.615
		h-1.453L278.424,128.486L278.424,128.486z M278.692,139.874c-0.122,5.678-0.121,5.702,0.402,6.169
		c0.488,0.436,0.861,0.469,5.264,0.469c7.443,0,19.734,0.79,23.917,1.538c4.269,0.763,6.785,1.921,9.098,4.188
		c3.286,3.221,5.401,7.887,7.131,15.733c1.274,5.779,1.817,10.662,2.481,22.308c0.616,10.796,0.693,12.51,0.704,15.513l0.011,3.174
		l-5.231,0.291c-2.884,0.16-6.058,0.396-7.075,0.525c-1.006,0.128-1.905,0.174-1.978,0.101c-0.074-0.074-0.006-1.9,0.151-4.068
		c0.439-6.058,0.403-16.409-0.071-20.229c-1.386-11.176-4.719-16.97-11.748-20.426c-3.684-1.811-6.192-2.368-11.266-2.504
		c-4.985-0.133-11.577,0.525-12.875,1.285l-0.738,0.432l-0.112,4.873l-0.112,4.873l-1.051-1.833
		c-0.579-1.011-2.304-3.833-3.845-6.292c-1.541-2.459-3.631-5.813-4.661-7.477c-1.023-1.654-2.174-3.447-2.548-3.968
		c-0.369-0.514-0.682-1.176-0.682-1.442c0-0.837,1.714-3.107,8.44-11.176c3.54-4.247,6.462-7.739,6.48-7.745
		C278.8,134.179,278.759,136.745,278.692,139.874L278.692,139.874z"/>
	<path style="fill:#E6008E;" d="M90.088,135.239c-7.131,0.655-10.718,1.314-15.267,2.804c-5.141,1.685-8.462,3.621-11.533,6.725
		c-5.808,5.869-8.751,14.507-9.82,28.813c-0.546,7.309,0.066,17.515,1.43,23.828c0.251,1.162,0.454,2.116,0.454,2.135
		c0,0.018-2.034,0.099-4.515,0.178c-5.097,0.163-8.34,0.629-8.805,1.264c-0.621,0.85-0.012,1.989,2.927,5.476
		c5.124,6.08,21.465,22.275,23.604,23.394c2.586,1.352,3.825,0.39,12.014-9.334c3.16-3.752,7.491-8.628,11.972-13.479
		c2.788-3.018,4.187-4.703,4.399-5.298c0.208-0.585-0.399-1.753-1.249-2.4c-1.076-0.819-3.644-1.489-7.533-1.965l-3.241-0.396
		l0.005-4.001c0.012-9.925,0.603-17.645,1.739-22.688c1.359-6.035,2.851-8.056,7.086-9.599c2.486-0.906,4.448-1.288,10.774-2.098
		c5.163-0.661,6.929-1.109,6.929-1.759c0-0.383-0.671-0.962-3.644-3.147c-3.912-2.875-7.153-5.916-7.153-6.71
		c0-0.282,0.636-1.934,1.408-3.655c0.772-1.721,1.671-3.873,1.989-4.761l0.581-1.621l-0.525-0.671
		c-0.298-0.38-0.671-0.732-0.861-0.813C102.848,135.289,91.608,135.099,90.088,135.239L90.088,135.239z M100.169,139.269
		c-1.576,3.152-3.04,6.92-3.04,7.824c0,0.339,0.298,1.006,0.679,1.52c1.068,1.443,4.641,4.826,6.631,6.278
		c1.006,0.734,1.87,1.416,1.945,1.534c0.074,0.117-1.051,0.287-2.503,0.379c-5.521,0.349-11.579,1.703-14.708,3.288
		c-1.587,0.804-4.011,3.116-4.815,4.592c-1.856,3.41-3.491,10.171-3.912,16.183c-0.32,4.56-0.122,13.321,0.361,16.027
		c0.48,2.682,0.692,2.916,2.755,3.037c2.347,0.138,8.483,0.905,8.673,1.084c0.086,0.081-2.565,2.964-5.869,6.384
		c-6.35,6.572-11.915,12.58-15.363,16.586c-1.135,1.319-2.264,2.457-2.517,2.537c-0.368,0.117-2.291-1.651-9.757-8.966
		c-9.858-9.66-13.86-13.906-13.389-14.208c0.147-0.094,0.805-0.176,1.453-0.18c1.587-0.01,9.086-0.874,10.215-1.177
		c0.514-0.138,1.02-0.442,1.152-0.693c0.326-0.618,0.297-2.638-0.135-9.612c-0.459-7.399-0.336-19.121,0.244-23.202
		c1.905-13.412,5.724-21.428,12.307-25.83c5.939-3.971,14.909-5.868,28.947-6.121l2.034-0.037L100.169,139.269L100.169,139.269z"/>
	<path style="fill:#0CFF35;" d="M411.741,144.185c-1.722,0.787-2.43,2.523-3.585,8.782l-0.684,3.711l-1.285,1.565
		c-0.716,0.872-1.76,2.03-2.358,2.615c-1.028,1.007-1.073,1.025-1.073,0.447c0-1.224-1.181-5.231-2.088-7.086
		c-1.64-3.353-4.037-5.5-7.255-6.499c-1.878-0.583-5.903-0.648-7.622-0.124c-3.711,1.132-6.949,4.678-7.374,8.076
		c-0.129,1.032-0.204,1.127-1.299,1.648c-1.386,0.659-2.651,2.241-3.797,4.744c-3.497,7.645-2.116,19.008,2.951,24.275
		c2.45,2.547,5.294,3.621,9.586,3.621c4.918,0,8.484-1.548,11.74-5.096c2.926-3.189,5.247-9.388,5.556-14.842l0.139-2.459
		l1.52-1.531l1.52-1.531l-0.143,1.654c-0.42,4.873-0.44,11.326-0.046,15.244c0.544,5.409,0.814,6.665,1.552,7.214
		c1.341,0.997,4.54,0.731,5.307-0.441c0.386-0.589,2.659-11.31,2.668-12.585c0.005-0.648,0.005-0.648,1.815,0.734
		c2.832,2.162,4.001,2.834,10.26,5.895c7.846,3.838,8.492,4.091,10.103,3.955c1.498-0.126,2.253-0.659,1.856-1.308
		c-0.135-0.221-1.99-1.516-4.113-2.872c-2.123-1.356-4.643-3.034-5.588-3.722c-0.945-0.687-2.951-1.991-4.448-2.893
		c-3.264-1.964-5.612-3.667-6.582-4.774c-0.873-0.997-0.896-0.939,1.625-4.225c4.596-5.99,9.27-14.048,9.892-17.055
		c0.241-1.162,0.225-1.393-0.13-1.945c-0.513-0.796-1.251-1.073-2.86-1.073c-2.437,0-3.77,1.14-6.927,5.924
		c-1.047,1.587-1.928,2.909-1.959,2.939c-0.031,0.031,0.08-0.972,0.245-2.224c0.95-7.197-0.017-9.228-4.392-9.215
		C413.261,143.734,412.422,143.874,411.741,144.185L411.741,144.185z M391.333,150.795c1.255,0.84,2.237,2.15,3.201,4.274
		c1.283,2.827,1.605,6.281,0.973,10.439l-0.329,2.168l-0.805,0.147c-1.216,0.223-2.571-0.301-3.845-1.486
		c-1.379-1.284-2.181-2.595-2.927-4.786c-1.057-3.107-0.969-5.928,0.27-8.673c0.525-1.162,1.822-2.816,2.21-2.816
		C390.167,150.062,390.729,150.391,391.333,150.795L391.333,150.795z M383.599,168.097c2.031,1.637,5.834,2.864,8.874,2.864
		c1.006,0,1.833,0.04,1.833,0.089c0,0.049-0.431,1.341-0.954,2.861c-1.5,4.359-3.046,7.168-5.092,9.254l-1.733,1.766l-0.801-0.917
		c-2.049-2.346-3.844-9.343-3.863-15.066C381.855,166.692,381.855,166.692,383.599,168.097L383.599,168.097z"/>
	<path style="fill:#F23207;" d="M190.653,158.107c-20.341,1.248-35.952,5.806-48.572,14.183c-4.918,3.264-8.134,6.49-9.956,9.986
		c-1.281,2.459-1.709,4.102-1.7,6.527c0.021,5.551,3.43,10.705,10.091,15.259c7.453,5.095,19.827,8.378,35.608,9.448
		c5.298,0.359,20.046,0.146,25.214-0.364c10.26-1.013,19.161-2.802,27.472-5.522c9.098-2.978,14.045-5.623,18.195-9.729
		c3.364-3.328,4.806-6.23,4.806-9.672c0-5.094-2.727-9.375-8.874-13.932c-5.489-4.069-10.953-6.179-23.984-9.263
		c-4.068-0.963-4.092-0.972-4.277-1.683c-0.219-0.841-1.311-1.984-2.652-2.776C208.708,158.612,199.572,157.56,190.653,158.107
		L190.653,158.107z M200.801,164.791c5.664,0.733,12.652,2.173,20.14,4.15c11.713,3.092,17.85,5.639,21.235,8.813
		c4.672,4.38,4.538,9.82-0.364,14.76c-5.84,5.886-17.653,10.773-31.668,13.101c-19.044,3.164-42.045,2.834-56.441-0.808
		c-9.053-2.291-13.394-4.74-15.33-8.65c-0.7-1.413-0.762-1.721-0.741-3.666c0.018-1.721,0.14-2.424,0.642-3.71
		c4.318-11.061,24.102-20.253,51.35-23.857C193.827,164.368,197.221,164.328,200.801,164.791L200.801,164.791z"/>
	<path style="fill:#0CFF35;" d="M255.625,201.471c-0.455,0.992,0.421,2.272,3.953,5.775c6.75,6.695,14.884,15.493,18.859,20.4
		c3.423,4.225,8.379,11.164,8.143,11.4c-0.049,0.049-1.363-0.169-2.928-0.486c-3.085-0.625-4.511-0.771-4.94-0.507
		c-0.148,0.091-0.338,0.545-0.425,1.014c-0.124,0.671-0.062,0.918,0.291,1.177c1.073,0.785,11.097,3.527,11.847,3.24
		c1.146-0.439,2.092-4.707,2.107-9.513c0.012-3.621-0.145-4.94-0.587-4.94c-0.641,0-1.272,2.973-1.318,6.214
		c-0.013,0.917-0.093,2.128-0.18,2.716l-0.157,1.062l-0.675-1.162c-1.815-3.125-5.819-8.74-9.038-12.674
		c-4.608-5.632-12.125-13.466-19.502-20.324c-3.643-3.387-3.937-3.631-4.649-3.856C256.004,200.874,255.861,200.957,255.625,201.471
		L255.625,201.471z"/>
	<path style="fill:#FDD044;" d="M132.056,206.436c-0.625,0.476-3.04,2.461-5.342,4.391c-11.109,9.311-19.941,18.26-24.563,24.888
		c-0.67,0.961-1.277,1.725-1.332,1.676c-0.055-0.049,0.014-1.431,0.154-3.062c0.318-3.71,0.322-5.651,0.015-6.236
		c-0.182-0.346-0.493-0.469-1.186-0.469c-0.877,0-0.969,0.067-1.398,1.028c-0.673,1.506-1.134,4.985-1.31,9.88
		c-0.149,4.135-0.139,4.259,0.361,4.707c0.91,0.814,2.548,0.738,7.063-0.33c6.505-1.537,7.435-1.945,6.236-2.73
		c-0.565-0.371-0.771-0.372-3.252-0.016c-1.453,0.208-3.441,0.592-4.403,0.849c-0.961,0.257-1.836,0.469-1.934,0.469
		c-0.228,0,2.723-3.867,5.511-7.22c4.858-5.843,12.393-13.44,24.576-24.777c3.331-3.099,3.647-3.459,3.264-3.703
		C133.901,205.391,133.173,205.584,132.056,206.436L132.056,206.436z"/>
	<path style="fill:#FDD044;" d="M375.662,204.239c-1.463,0.442-2.612,2.618-3.152,5.971c-0.398,2.471-0.353,8.628,0.081,11.109
		l0.344,1.967l-0.849-0.201c-0.471-0.112-1.945-0.201-3.308-0.201c-2.213,0-2.591,0.065-3.778,0.649
		c-3.464,1.706-5.578,6.235-4.913,10.527c0.53,3.42,1.879,6.021,3.996,7.702c1.634,1.298,3.107,1.738,5.476,1.636
		c1.699-0.073,2.055-0.168,2.816-0.748c1.686-1.284,2.761-3.695,3.293-7.383l0.283-1.967l1.285,2.191
		c1.757,2.995,3.066,4.278,4.75,4.653c2.442,0.544,3.94-0.249,5.326-2.82l0.687-1.274l0.259,0.693
		c1.348,3.599,3.546,5.275,6.916,5.275c3.402,0,4.954-1.52,6.711-6.572c0.677-1.946,0.79-2.604,0.878-5.085
		c0.073-2.079-0.008-3.4-0.302-4.884c-0.221-1.118-0.362-2.07-0.313-2.113c0.402-0.357,4.465-2.497,4.56-2.402
		c0.074,0.074,0.015,1.632-0.133,3.487c-0.522,6.549-0.549,8.419-0.161,11.154c0.643,4.538,1.197,5.236,4.184,5.272
		c1.699,0.021,2.136-0.338,2.392-1.964c0.602-3.822,2.432-8.759,4.416-11.914c1.139-1.811,3.015-4.293,3.143-4.158
		c0.046,0.049-0.124,1.676-0.376,3.599c-0.727,5.544-0.512,10.407,0.55,12.451c0.754,1.45,2.168,2.191,4.179,2.191
		c2.354,0,3.214-0.76,4.856-4.292c0.53-1.14,1.011-2.056,1.079-2.056c0.069,0,0.343,0.514,0.621,1.162
		c1.126,2.628,3.525,3.904,6.99,3.717c2.428-0.13,3.755-0.663,6.594-2.645c2.258-1.576,2.856-2.303,2.325-2.823
		c-0.193-0.189-0.738-0.412-1.185-0.484c-0.678-0.11-1.386,0.124-3.934,1.303c-3.934,1.819-4.37,1.918-4.699,1.067
		c-0.132-0.341-0.313-1.576-0.398-2.716l-0.156-2.09h0.693c2.056,0,4.73-1.592,5.406-3.219c0.176-0.422,0.316-1.475,0.316-2.369
		c0-1.967-0.843-3.848-2.101-4.687c-1.799-1.199-4.247-1.514-6.594-0.849c-2.578,0.731-3.871,2.429-4.559,5.983
		c-0.208,1.073-0.488,2.231-0.616,2.548c-0.352,0.872-2.825,5.211-2.917,5.119c-0.049-0.049,0.176-2.347,0.501-5.119
		c0.727-6.192,0.695-8.593-0.126-9.478c-0.607-0.653-2.432-1.319-3.616-1.319c-1.453,0-2.607,0.551-3.934,1.878
		c-1.676,1.676-4.047,4.695-4.986,6.348l-0.736,1.296l-0.134-3.174c-0.074-1.743-0.268-3.496-0.431-3.889
		c-0.695-1.672-2.095-2.459-4.375-2.459c-1.24,0-1.721,0.132-3.018,0.827c-0.843,0.452-2.246,1.202-3.096,1.654l-1.553,0.827
		l-0.656-0.894c-1.415-1.928-2.719-2.638-4.842-2.638c-2.168,0-3.845,1.257-3.845,2.883c0,0.453-0.246,0.704-1.118,1.14
		c-0.906,0.453-1.239,0.805-1.758,1.855c-0.845,1.71-1.323,3.666-1.508,6.169c-0.152,2.051-0.174,2.112-1.696,4.616
		c-0.842,1.386-1.715,2.786-1.922,3.085l-0.38,0.548l-0.268-0.939c-0.147-0.514-0.44-2.213-0.648-3.755
		c-0.341-2.526-0.349-3.811-0.078-12.462c0.166-5.298,0.232-10.481,0.147-11.5c-0.209-2.503-0.863-3.792-2.282-4.494
		C379.06,204.157,376.779,203.902,375.662,204.239L375.662,204.239z M397.491,222.347c-0.248,0.409-0.587,0.179-0.921-0.626
		c-0.5-1.207-0.14-1.542,0.505-0.469C397.371,221.743,397.558,222.236,397.491,222.347L397.491,222.347z M439.043,226.102
		c0.008,0.782-0.152,1.332-0.559,1.922c-0.509,0.738-1.131,1.227-1.305,1.028c-0.133-0.152,0.408-3.197,0.755-4.247l0.384-1.162
		l0.358,0.682C438.871,224.701,439.037,225.499,439.043,226.102L439.043,226.102z M398.527,225.051
		c0.296,1.085,0.125,5.231-0.297,7.22c-0.38,1.788-1.547,4.656-2.293,5.633c-0.338,0.442-0.369,0.402-0.534-0.693
		c-0.287-1.9,0.243-10.94,0.733-12.518c0.055-0.177,0.504-0.291,1.152-0.291C398.249,224.403,398.367,224.465,398.527,225.051
		L398.527,225.051z M372.175,227.164l0.648,0.525l-0.284,1.475c-0.984,5.119-2.775,10.506-3.494,10.506
		c-0.135,0-0.46-0.693-0.723-1.542c-1.016-3.286-0.348-8.642,1.441-11.556l0.466-0.76l0.648,0.413
		C371.236,226.453,371.817,226.874,372.175,227.164L372.175,227.164z"/>
	<path style="fill:#042F92;" d="M187.513,220.895c-0.955,0.715-3.633,22.555-3.662,29.864l-0.004,0.939l-1.092-1.878
		c-1.612-2.772-3.008-4.508-3.736-4.646c-0.849-0.161-1.861,0.159-1.83,0.578c0.032,0.437,6.511,11.132,7.177,11.847
		c0.74,0.795,2.477,0.764,3.304-0.059c1.036-1.031,5.771-9.016,6.937-11.698c0.368-0.846,0.037-1.319-0.924-1.319
		c-0.798,0-1.048,0.313-4.123,5.163c-1.134,1.788-2.089,3.244-2.114,3.221c-0.083-0.079,0.583-15.47,0.84-19.404
		c0.773-11.847,0.796-12.484,0.457-12.697C188.29,220.521,187.982,220.543,187.513,220.895L187.513,220.895z"/>
	<path style="fill:#FDD044;" d="M69.501,245.996c-4.493,0.471-8.734,1.479-12.517,2.977c-9.567,3.787-13.786,9.803-12.315,17.562
		c0.72,3.8,2.634,7.005,5.833,9.771c11.458,9.905,34.915,14.632,55.658,11.216c11.489-1.892,18.37-6.402,19.742-12.94
		c0.891-4.247-0.786-9.692-3.985-12.942c-2.652-2.694-7.084-5.24-11.152-6.406c-1.833-0.526-2.369-0.771-2.369-1.082
		c0-0.785-1.811-2.243-4.269-3.436c-3.896-1.892-9.299-3.272-16.653-4.256C83.427,245.918,72.848,245.645,69.501,245.996
		L69.501,245.996z M82.354,254.825c11.467,1.646,17.154,2.851,23.694,5.021c7.935,2.633,11.821,4.593,14.663,7.395
		c2.123,2.094,2.44,2.796,1.903,4.212c-0.771,2.027-3.266,4.265-6.664,5.974c-9.036,4.547-27.784,5.713-43.297,2.693
		c-9.41-1.832-18.083-5.68-22.397-9.938c-3.666-3.617-3.74-5.791-0.313-9.163c3.478-3.422,9.5-5.66,17.972-6.68
		C73.48,253.669,74.553,253.705,82.354,254.825L82.354,254.825z"/>
	<path style="fill:#0CFF35;" d="M294.638,253.074c-6.818,0.813-12.478,2.123-18.262,4.229c-3.263,1.188-9.051,4.071-11.78,5.868
		c-2.861,1.884-6.67,5.636-7.941,7.823c-2.693,4.634-2.545,9.522,0.445,14.663c1.335,2.295,5.708,6.77,8.234,8.426
		c8.796,5.765,22.889,8.928,36.234,8.133c13.68-0.815,24.776-4.027,33.216-9.613c7.019-4.646,10.662-9.922,10.662-15.439
		c0-3.867-1.378-7.139-4.358-10.349c-5.482-5.905-13.48-8.999-24.79-9.589c-2.168-0.113-2.995-0.237-2.995-0.447
		c0-0.158-0.469-0.76-1.028-1.319c-1.23-1.23-3.107-1.948-6.013-2.299C304.428,252.938,296.283,252.878,294.638,253.074
		L294.638,253.074z M317.996,260.919c8.762,0.696,16.282,3.11,20.118,6.459c5.549,4.845,2.638,14.202-6.214,19.974
		c-13.089,8.535-35.004,11.689-53.334,7.676c-7.6-1.664-13.741-4.687-16.132-7.94c-1.347-1.833-1.792-3.42-1.662-5.923
		c0.142-2.727,1.244-4.93,3.689-7.37c4.748-4.739,14.842-9.747,24.923-12.366l2.504-0.65l11.467-0.056
		C309.86,260.691,316.196,260.776,317.996,260.919L317.996,260.919z"/>
	<path style="fill:#E6008E;" d="M425.081,263.904c-0.346,0.289-0.555,0.786-0.639,1.524c-0.188,1.641,0.479,2.548,6.381,8.673
		c2.886,2.995,5.215,5.494,5.166,5.543c-0.049,0.049-1.229-0.182-2.615-0.511c-9.53-2.265-19.156-2.745-28.835-1.437
		c-15.267,2.063-30.147,8.539-38.625,16.809c-2.392,2.333-3.487,3.935-3.487,5.1c0,0.647,0.201,0.997,1.028,1.788
		c1.095,1.047,1.926,1.338,2.973,1.04c0.368-0.105,3.241-1.719,6.37-3.58c7.622-4.533,10.417-6.1,14.708-8.249
		c7.734-3.872,15.547-6.54,22.666-7.74c5.253-0.885,12.313-1.258,16.541-0.874c3.398,0.309,10.573,1.447,10.573,1.676
		c0,0.085-0.615,0.441-1.352,0.782c-0.744,0.344-3.453,1.708-6.024,3.031c-5.275,2.716-5.906,3.258-6.147,5.284
		c-0.191,1.609,0.014,2.326,0.715,2.497c0.345,0.084,1.9-0.205,3.822-0.708c1.788-0.469,3.872-0.978,4.649-1.136
		c2.281-0.464,3.733-1.014,8.203-3.112c4.739-2.223,5.517-2.833,6.098-4.783c0.75-2.518,0.37-3.621-2.296-6.661
		c-5.37-6.125-14.581-13.913-17.794-15.046C425.908,263.374,425.707,263.383,425.081,263.904L425.081,263.904z"/>
	<path style="fill:#042F92;" d="M180.102,266.45c-10.618,1.333-19.59,4.229-25.884,8.355c-6.482,4.249-9.712,9.541-9.734,15.948
		c-0.009,2.749,0.301,4.163,1.467,6.684c1.241,2.682,2.493,4.417,4.669,6.464c5.377,5.061,14.462,8.368,27.382,9.967
		c4.574,0.566,16.318,0.56,21.459-0.011c19.894-2.209,31.906-8.343,34.518-17.627c0.549-1.95,0.394-5.32-0.342-7.466
		c-2.206-6.429-7.129-11.228-14.595-14.229c-5.038-2.025-10.908-3.167-17.726-3.448l-3.912-0.161l-0.269-0.894
		c-0.624-2.072-1.832-2.751-6.012-3.383C188.976,266.326,182.089,266.201,180.102,266.45L180.102,266.45z M196.52,275.308
		c0.389,0.049,1.866,0.159,3.297,0.245c9.254,0.557,19.277,3.231,24.633,6.573c5.566,3.472,7.141,6.486,5.748,10.997
		c-1.037,3.359-3.893,6.442-8.676,9.366c-1.057,0.646-4.314,2.001-6.862,2.855c-4.826,1.617-11.132,2.897-17.189,3.488
		c-3.98,0.388-17.77,0.386-21.816-0.003c-9.925-0.956-16.619-2.876-21.861-6.271c-4.716-3.055-6.665-6.391-6.018-10.306
		c0.388-2.347,1.821-5.108,3.715-7.153c3.828-4.134,8.964-6.709,18.509-9.279l3.062-0.824l11.378,0.112
		C190.698,275.168,196.133,275.259,196.52,275.308L196.52,275.308z"/>
	<path style="fill:#E6008E;" d="M245.081,318.012c-0.379,0.341-1.308,1.017-2.09,1.52c-0.779,0.501-2.112,1.544-2.984,2.336
		c-0.865,0.785-2.403,1.985-3.409,2.66c-1.006,0.674-4.426,3.046-7.577,5.253c-3.158,2.212-9.388,6.541-13.836,9.615
		c-11.512,7.954-12.754,8.879-16.474,12.271l-1.788,1.63l-10.416,0.043c-13.658,0.056-23.13,0.523-24.99,1.231
		c-1.298,0.494-0.067,2.629,1.967,3.413c1.042,0.402,2.258,0.434,17.994,0.476l16.876,0.045l1.665,1.419
		c0.918,0.783,3.029,2.275,4.705,3.328c7.131,4.476,8.73,5.494,13.747,8.75c2.906,1.886,7.223,4.658,9.612,6.173
		c2.38,1.509,6.505,4.122,9.142,5.792c11.445,7.245,14.311,8.602,18.15,8.591c3.034-0.008,5.208-1.142,12.607-6.574
		c3.301-2.424,6.862-4.896,14.015-9.732c14.283-9.656,26.946-19.324,29.042-22.173c1.042-1.417,0.889-1.699-1.883-3.468
		c-1.364-0.87-3.1-2.026-3.856-2.567c-0.757-0.542-4.784-2.846-8.963-5.13c-4.18-2.284-9.276-5.119-11.344-6.311
		c-10.863-6.262-15.514-8.764-23.806-12.807c-2.772-1.352-6.691-3.301-8.684-4.319c-3.196-1.633-3.819-1.869-5.186-1.967
		C245.885,317.406,245.708,317.446,245.081,318.012L245.081,318.012z M259.353,327.813c7.793,3.907,11.422,5.879,23.292,12.658
		c12.942,7.391,16.803,9.466,21.324,11.46l0.917,0.404l-4.426,2.962c-2.435,1.629-8.338,5.677-13.121,8.997
		c-11.02,7.649-20.989,14.323-25.281,16.923c-1.855,1.124-4.172,2.6-5.186,3.305c-2.325,1.614-4.486,2.644-5.566,2.651
		c-0.857,0.006-4.515-1.995-8.919-4.879c-1.096-0.717-4.415-2.854-7.388-4.756c-2.973-1.902-7.768-4.99-10.673-6.873
		c-2.906-1.884-6.751-4.349-8.561-5.488c-1.815-1.142-5.007-3.208-7.131-4.616c-2.123-1.407-4.43-2.818-5.152-3.152
		c-0.961-0.444-1.219-0.657-0.972-0.805c0.185-0.111,1.922-1.077,3.867-2.151c11.31-6.245,29.807-18.816,36.994-25.142
		c0.817-0.719,2.448-1.908,3.588-2.615c1.14-0.707,2.578-1.657,3.163-2.09c0.581-0.43,1.104-0.799,1.14-0.805
		C251.298,323.796,254.949,325.606,259.353,327.813L259.353,327.813z"/>
	<path style="fill:#0CFF35;" d="M101.935,318.353c-1.834,0.604-5.834,3.084-10.081,6.251c-1.684,1.255-5.387,3.868-8.226,5.804
		c-2.839,1.935-7.226,4.929-9.746,6.65c-14.35,9.799-25.801,19.003-25.807,20.744c-0.004,1.043,1.823,2.176,3.075,1.906
		c0.553-0.119,0.701-0.039,1.006,0.542c0.196,0.373,1.095,1.306,1.989,2.062c1.61,1.362,3.152,2.274,11.646,6.884
		c4.269,2.317,9.977,5.518,12.786,7.171c4.707,2.77,13.344,7.382,18.776,10.027c3.42,1.665,7.932,3.879,9.992,4.901
		c4.605,2.286,5.891,2.55,7.175,1.471c0.448-0.376,1.375-1.047,2.09-1.514c0.711-0.463,1.9-1.408,2.66-2.112
		c0.759-0.703,3.208-2.536,5.465-4.09c2.246-1.546,6.918-4.787,10.361-7.186c3.444-2.4,9.131-6.354,12.618-8.773
		c8.718-6.046,10.414-7.346,13.3-10.192c2.593-2.557,3.05-3.33,2.581-4.36c-0.421-0.922-5.107-4.825-7.766-6.468
		c-2.408-1.488-9.567-6.041-12.696-8.076c-5.99-3.894-10.842-7.012-14.775-9.497c-2.526-1.596-5.104-3.228-5.745-3.637
		c-7.466-4.765-11.773-7.182-14.44-8.103C106.294,318.109,103.271,317.913,101.935,318.353L101.935,318.353z M109.87,323.949
		c1.002,0.513,8.606,5.223,12.138,7.518c3.294,2.141,12.339,7.957,19.827,12.751c3.867,2.476,8.331,5.359,9.902,6.396
		c1.565,1.033,3.499,2.193,4.269,2.559c0.782,0.373,1.418,0.725,1.431,0.793c0.012,0.068-0.581,0.418-1.319,0.778
		c-9.12,4.457-31.097,19.155-39.699,26.549c-1.051,0.903-2.536,2.023-3.275,2.469c-0.743,0.448-2.068,1.32-2.939,1.934
		c-0.872,0.614-1.678,1.118-1.788,1.118c-0.281,0-11.914-5.723-15.759-7.752c-2.958-1.561-8.002-4.41-17.48-9.871
		c-2.191-1.262-5.561-3.157-7.499-4.215c-1.945-1.062-4.681-2.576-6.113-3.382c-2.308-1.299-3.219-1.719-5.924-2.727
		c-0.425-0.158-0.76-0.357-0.76-0.451c0-0.091,0.671-0.579,1.475-1.072c1.539-0.944,8.002-5.366,19.894-13.611
		c8.449-5.859,16.672-11.354,20.363-13.61c1.471-0.899,3.889-2.428,5.409-3.421c3.666-2.394,5.238-3.184,6.438-3.238
		C108.694,323.453,109.334,323.674,109.87,323.949L109.87,323.949z"/>
	<path style="fill:#FDD044;" d="M198.599,396.489c-0.943,0.745-5.428,11.33-6.193,14.616l-0.401,1.721l-5.409,0.016
		c-6.013,0.018-10.339,0.368-11.422,0.925c-1.024,0.526-0.924,1.227,0.382,2.68c1.206,1.342,5.251,4.134,9.007,6.215
		c1.364,0.756,2.902,1.617,3.454,1.933l0.995,0.57l-0.324,0.782c-0.178,0.429-2.039,3.666-4.127,7.175
		c-4.162,6.996-5.478,9.546-5.355,10.372c0.125,0.838,1.446,1.453,3.123,1.453c2.559,0,6.572-2.253,14.328-8.043
		c1.922-1.435,3.575-2.62,3.655-2.62c0.08,0,2.454,2.392,5.26,5.298c7.1,7.354,9.187,8.971,11.896,9.216
		c3.484,0.315,3.847-1.035,2.307-8.567c-0.736-3.599-2.53-9.134-3.746-11.556c-0.393-0.782-0.707-1.537-0.707-1.699
		c0-0.502,11.422-10.326,15.222-13.092c1.453-1.057,1.688-1.324,1.627-1.84c-0.102-0.862-1.337-1.62-2.969-1.823
		c-0.74-0.092-3.286-0.036-5.678,0.124c-2.38,0.159-6.561,0.371-9.265,0.469c-2.705,0.098-5.07,0.219-5.242,0.268
		c-0.217,0.062-0.669-1.028-1.473-3.554c-1.679-5.275-4.039-9.935-5.524-10.908c-0.317-0.208-1.084-0.436-1.688-0.504
		C199.437,396.018,199.104,396.09,198.599,396.489L198.599,396.489z M203.55,408.3c1.07,2.191,1.876,3.556,2.202,3.733
		c0.291,0.158,0.64,0.454,0.803,0.682c0.37,0.514,1.812,1.004,2.55,0.865c0.308-0.058,1.431-0.023,2.504,0.077
		c1.746,0.164,7.51-0.02,11.4-0.363l1.498-0.132l-2.392,1.905c-5.409,4.309-10.794,9.406-11.28,10.68
		c-0.293,0.766-0.053,2.101,0.839,4.672c0.721,2.079,2.707,10.539,2.707,11.534c0,0.16-0.661-0.402-1.471-1.252
		c-2.963-3.107-8.477-8.018-9.773-8.703c-3.085-1.632-5.401-1.406-8.025,0.782c-0.563,0.47-2.358,1.738-3.968,2.802
		c-1.609,1.065-3.415,2.304-3.99,2.738l-1.051,0.793l0.797-1.408c1.4-2.474,4.018-6.728,5.79-9.41
		c0.945-1.431,1.728-2.828,1.728-3.085c0-0.596-0.76-1.274-2.28-2.034c-1.811-0.905-9.615-5.476-11.221-6.572l-1.408-0.961
		l1.062-0.19c0.582-0.104,4.079-0.236,7.745-0.291c3.666-0.055,6.754-0.104,6.84-0.109c0.377-0.02,1.506-2.495,2.578-5.647
		c0.638-1.878,1.54-4.428,2.016-5.7l0.861-2.302l0.626,1.721C201.581,404.072,202.621,406.4,203.55,408.3L203.55,408.3z"/>
	<path style="fill:#042F92;" d="M125.383,401.916c-0.5,0.34-0.787,1.204-0.697,2.098c0.078,0.778,2.168,6.482,4.046,11.042
		c0.332,0.805,0.567,1.516,0.518,1.565c-0.049,0.049-1.565-0.161-3.375-0.469c-10.4-1.768-22.129-2.984-39.9-4.138
		c-6.974-0.453-26.84-0.372-31.495,0.129c-3.755,0.404-4.698,0.629-4.903,1.17c-0.069,0.182,0.261,1.028,0.723,1.855
		c0.625,1.118,1.969,2.66,5.085,5.834c3.885,3.957,4.212,4.353,3.945,4.784c-0.16,0.259-1.76,2.526-3.565,5.052
		c-1.805,2.526-3.633,5.295-4.074,6.169c-1.081,2.146-2.059,5.602-1.872,6.616c0.194,1.053,1.755,2.785,3.096,3.436
		c1.012,0.491,1.274,0.513,4.627,0.381c3.996-0.158,9.455-0.82,19.76-2.398c12.741-1.951,23.216-3.412,33.797-4.715
		c1.542-0.19,3.984-0.554,5.398-0.805c1.424-0.253,5.052-0.774,8.092-1.162c3.04-0.388,6.011-0.774,6.627-0.861l1.118-0.156
		l-0.57,1.386c-0.315,0.766-1.105,3.141-1.766,5.309s-1.406,4.463-1.665,5.13c-0.626,1.609-0.527,2.103,0.492,2.468
		c1.453,0.52,2.59,0.393,3.979-0.444c2.585-1.559,9.254-6.632,12.495-9.506c3.912-3.468,10.421-10.022,11.505-11.585
		c0.403-0.581,1.041-1.243,1.393-1.443c1.429-0.816,0.855-1.82-3.605-6.313c-3.352-3.376-5.403-5.093-13.539-11.334
		c-7.622-5.846-8.325-6.361-10.685-7.829c-2.056-1.279-2.463-1.446-3.521-1.446C126.199,401.734,125.528,401.817,125.383,401.916
		L125.383,401.916z M133.229,410.457c3.413,2.914,7.958,6.943,11.825,10.481c1.9,1.739,4.393,3.908,5.521,4.802
		c1.14,0.905,2.151,1.721,2.269,1.833c0.123,0.116-0.715,1.068-1.989,2.258c-1.218,1.138-3.465,3.264-5.029,4.761
		s-3.926,3.688-5.286,4.906c-1.348,1.207-3.766,3.469-5.354,5.007c-1.587,1.538-2.94,2.755-2.995,2.694
		c-0.056-0.062,0.464-1.408,1.166-3.018c1.646-3.778,2.516-6.333,2.663-7.823l0.117-1.185l-0.916-0.444
		c-1.01-0.49-2.973-0.518-8.874-0.13c-1.812,0.119-5.812,0.323-8.919,0.455c-14.344,0.608-29.036,2.232-54.094,5.98
		c-3.018,0.451-5.544,0.777-5.599,0.722c-0.056-0.056,0.258-0.592,0.714-1.218c1.385-1.9,4.809-7.846,5.715-9.925
		c1.004-2.302,1.008-3.463,0.019-4.895c-0.619-0.896-6.013-6.289-8.36-8.357l-1.297-1.143l11.735,0.149
		c17.126,0.218,26.913,0.787,46.941,2.732c5.025,0.488,9.075,0.784,16.161,1.184c3.912,0.22,4.491,0.207,4.985-0.117
		c0.684-0.448,0.699-0.573,0.201-1.713c-0.21-0.482-0.78-1.922-1.274-3.219c-0.494-1.296-1.206-3.087-1.59-4.001
		c-0.855-2.034-1.071-2.705-0.869-2.705C130.901,408.529,131.977,409.388,133.229,410.457L133.229,410.457z"/>
	<g>
		<path style="fill:#0CFF35;" d="M439.925,418.383c-0.291,0.123-0.536,0.423-0.536,0.653c0,0.233,0.662,1.587,1.464,2.995
			c1.465,2.573,3.298,5.096,6.64,9.142c0.96,1.162,1.749,2.28,1.743,2.47c-0.006,0.191-1.467,2.168-3.252,4.404
			c-2.875,3.599-3.393,4.388-4.585,6.985c-1.488,3.241-1.487,3.375,0.025,4.016c1.664,0.705,2.057,0.526,4.85-2.212
			c1.408-1.38,3.051-3.262,3.632-4.162c0.585-0.904,2.049-2.939,3.257-4.526c2.603-3.42,2.655-3.66,1.173-5.476
			c-0.563-0.69-1.925-2.526-3.034-4.091c-3.615-5.096-7.093-9.171-8.403-9.844C442.026,418.288,440.559,418.114,439.925,418.383
			L439.925,418.383z"/>
		<path style="fill:#0CFF35;" d="M384.467,430.576c-0.451,0.106-1.833,0.422-3.04,0.694c-4.046,0.913-4.225,1.038-4.225,2.943
			c0,1.45,0.514,1.932,2.258,2.115c0.75,0.079,2.369,0.29,3.599,0.468c4.538,0.66,7.287-0.508,7.287-3.097
			c0-1.274-0.509-2.297-1.363-2.739C388.171,430.54,385.563,430.319,384.467,430.576L384.467,430.576z"/>
		<path style="fill:#0CFF35;" d="M402.07,430.95c-0.19,0.049-1.71,0.195-3.364,0.324c-1.989,0.155-3.208,0.359-3.576,0.601
			c-1.159,0.76-0.894,3.431,0.402,4.054c0.952,0.458,8.337,1.294,9.835,1.113c1.587-0.191,3.161-0.86,3.501-1.488
			c0.142-0.262,0.254-0.984,0.254-1.632c0-2.106-1.006-2.72-4.828-2.95C403.266,430.911,402.26,430.901,402.07,430.95L402.07,430.95
			z"/>
		<path style="fill:#0CFF35;" d="M418.611,431.173c-1.431,0.161-3.19,0.42-3.945,0.581c-1.229,0.262-1.398,0.372-1.71,1.118
			c-0.295,0.703-0.301,0.972-0.045,1.799c0.257,0.827,0.442,1.018,1.241,1.277c1.213,0.394,7.846,0.71,9.366,0.447
			c1.408-0.244,2.843-0.934,3.049-1.467c0.303-0.782,0.161-2.401-0.254-2.906c-0.5-0.608-2.594-1.209-4.069-1.169
			C421.661,430.87,420.042,431.012,418.611,431.173L418.611,431.173z"/>
		<path style="fill:#0CFF35;" d="M435.633,431.67c-4.649,0.35-5.336,0.49-5.789,1.18c-0.426,0.648-0.267,1.989,0.29,2.451
			c0.446,0.371,6.706,0.771,9.634,0.616c2.66-0.141,3.53-0.531,3.746-1.681c0.202-1.073-0.156-2.063-0.863-2.388
			C441.746,431.431,439.545,431.375,435.633,431.67L435.633,431.67z"/>
	</g>
	<g>
		<path style="fill:#042F92;" d="M337.655,401.031c-3.838,0.514-7.18,5.152-8.641,11.992c-0.201,0.942-0.427,3.107-0.499,4.783
			c-0.221,5.141,0.692,10.27,2.634,14.797c0.441,1.028,0.805,1.948,0.805,2.034c0,0.288-1.364,0.888-2.012,0.885
			c-1.633-0.008-3.36-2.606-4.11-6.182c-0.281-1.341-0.499-3.554-0.581-5.901c-0.179-5.119-0.199-5.216-1.165-5.688
			c-0.581-0.283-0.805-0.547-0.805-0.951c0-0.867-1.341-2.056-2.816-2.498c-1.606-0.481-4.873-0.496-6.661-0.031
			c-2.571,0.669-4.265,1.832-6.227,4.272c-0.821,1.021-1.317,1.359-3.217,2.19c-1.229,0.538-2.277,0.948-2.314,0.905
			c-0.037-0.043-0.434-0.659-0.885-1.375c-2.071-3.283-5.709-5.168-9.375-4.858c-3.129,0.264-5.119,2.135-5.119,4.814
			c0,0.827-0.088,0.956-0.905,1.319c-0.492,0.219-1.103,0.739-1.339,1.14c-0.487,0.827-2.721,3.442-2.941,3.442
			c-0.086,0-0.219-2.079-0.297-4.627c-0.254-8.382-1.12-10.148-4.979-10.148h-1.274l-0.579-1.14
			c-0.908-1.788-2.861-3.763-4.473-4.522c-1.263-0.595-1.654-0.664-3.8-0.669c-4.716-0.012-8.094,1.82-11.385,6.175
			c-2.705,3.579-4.38,8.047-4.911,13.099c-0.688,6.549,1.604,12.232,5.79,14.355c2.273,1.152,6.236,1.393,8.919,0.542
			c2.206-0.7,4.54-2.603,6.153-5.017c0.448-0.671,0.913-1.229,1.023-1.229c0.112,0,0.201,0.604,0.201,1.364
			c0,1.307-0.054,1.431-1.303,2.995c-1.785,2.235-3.844,5.282-5.002,7.399c-2.53,4.627-3.076,9.139-1.394,11.534
			c1.266,1.803,4.726,2.286,7.319,1.021c3.47-1.693,5.98-5.76,7.652-12.399c0.76-3.019,1.526-7.913,1.78-11.378
			c0.149-2.034,0.199-2.186,0.951-2.917c0.447-0.434,0.796-0.674,0.799-0.548c0.03,1.252,0.59,3.645,1.083,4.627
			c1.275,2.54,2.734,3.867,5.372,4.887c1.139,0.441,1.878,0.547,3.867,0.556c2.235,0.01,2.591-0.05,3.912-0.659
			c2.505-1.156,4.98-4.113,5.819-6.952c0.489-1.655,0.702-5.141,0.418-6.84l-0.225-1.341l1.084-0.425
			c0.604-0.236,1.148-0.454,1.229-0.492c0.08-0.037,0.094,1.118,0.031,2.57c-0.134,3.107,0.142,4.73,1.148,6.751
			c0.824,1.654,2.149,2.884,3.66,3.397c1.385,0.47,3.912,0.463,5.32-0.014c1.53-0.519,3.327-2.354,4.385-4.478l0.824-1.654
			l0.908,1.788c1.226,2.414,3.268,4.477,5.105,5.157c1.565,0.579,4.666,0.673,6.035,0.183l0.805-0.288l1.12,1.341
			c1.304,1.561,3.529,3.109,5.206,3.621c1.676,0.512,4.501,0.683,6.035,0.367c2.124-0.438,3.487-1.233,5.991-3.494
			c3.711-3.35,5.968-6.378,5.968-8.004c0-0.729-0.335-0.961-1.386-0.961c-0.793,0-1.246,0.38-2.585,2.168
			c-1.061,1.417-3.518,3.72-6.11,5.728c-1.878,1.454-2.944,2.02-3.487,1.851c-1.246-0.389-2.802-2.952-3.882-6.394l-0.611-1.945
			l0.786-1.229c2.967-4.64,4.777-10.729,5.008-16.854c0.101-2.682,0.043-3.849-0.271-5.409
			C344.166,402.249,342.069,400.441,337.655,401.031L337.655,401.031z M340.874,404.931c1.129,1.783,1.489,4.001,1.344,8.27
			c-0.144,4.225-0.581,6.301-2.089,9.925c-0.828,1.989-1.015,2.282-1.227,1.922c-0.376-0.638-0.341-13.926,0.045-16.63
			c0.303-2.124,0.905-4.582,1.122-4.582C340.131,403.836,340.492,404.328,340.874,404.931L340.874,404.931z M268.503,409.245
			c1.075,1.133,2.25,3.308,2.909,5.387c0.455,1.436,0.467,1.721,0.214,5.163l-0.268,3.644l-0.928,1.498
			c-2.577,4.158-8.056,10.602-8.683,10.214c-0.098-0.061-0.411-0.714-0.695-1.452c-0.782-2.034-0.899-7.376-0.245-11.199
			c1.018-5.946,3.046-11.503,4.959-13.59C266.888,407.685,267.038,407.703,268.503,409.245L268.503,409.245z M319.125,417.24
			c1.241,0.65,1.281,0.768,0.935,2.78c-0.676,3.934-2.219,8.293-3.807,10.752c-0.924,1.431-2.436,2.995-2.895,2.995
			c-0.149,0-0.467-0.626-0.715-1.408c-0.348-1.097-0.414-1.788-0.299-3.129c0.38-4.404,2.824-9.904,5.149-11.588
			C318.543,416.88,318.471,416.898,319.125,417.24L319.125,417.24z M294.961,418.396c1.453,1.042,3.392,3.863,3.128,4.551
			c-0.187,0.488-2.591,0.904-3.62,0.627c-1.699-0.458-3.262-2.66-3.048-4.293C291.683,417.292,292.972,416.97,294.961,418.396
			L294.961,418.396z M296.112,426.077l2.76-0.112v1.386c0,2.749-2.02,7.243-4.023,8.952c-0.536,0.457-1.075,0.783-1.185,0.717
			c-0.464-0.28-1.368-2.471-1.712-4.148c-0.21-1.024-0.367-2.939-0.367-4.482v-2.694l0.883,0.246
			C292.969,426.082,294.548,426.14,296.112,426.077L296.112,426.077z M272.259,445.077c-0.21,5.588-1.099,8.721-3.003,10.592
			c-0.872,0.856-1.165,0.918-1.721,0.361c-0.6-0.6-0.824-1.386-0.817-2.861c0.01-1.997,0.35-3.174,1.744-6.035
			c1.154-2.369,3.445-5.99,3.79-5.99C272.337,441.143,272.341,442.908,272.259,445.077L272.259,445.077z"/>
		<path style="fill:#042F92;" d="M290.178,444.466c-5.476,0.703-7.24,1.991-5.764,4.21c1.359,2.043,1.741,2.079,21.97,2.066
			c9.232-0.006,19.085,0.1,21.928,0.236c2.84,0.135,8.438,0.276,12.439,0.313l7.276,0.067l0.08-0.536
			c0.105-0.702-0.728-2.005-1.51-2.363c-0.356-0.163-2.135-0.503-3.945-0.755c-1.82-0.253-5.51-0.769-8.237-1.152
			c-5.477-0.77-14.552-1.718-20.028-2.094C310.206,444.17,292.428,444.177,290.178,444.466L290.178,444.466z"/>
	</g>
	<g>
		<path style="fill:#F23207;" d="M391.866,312.915c-4.47,0.518-9.08,1.887-13.389,3.976c-12.175,5.903-20.849,17.513-23.706,31.729
			c-1.464,7.287-1.146,15.193,0.854,21.19c2.183,6.549,6.7,12.822,12.301,17.084c1.252,0.952,1.451,1.214,1.593,2.094
			c0.449,2.788,3.973,5.96,9.606,8.648c6.118,2.919,12.965,4.211,20.699,3.906c12.808-0.505,23.262-6.198,30.03-16.354
			c4.28-6.424,6.287-11.78,7.913-21.123c0.491-2.823,0.413-12.92-0.122-15.848c-1.12-6.125-2.496-10.161-5.035-14.775
			c-5.376-9.77-15.954-17.575-26.862-19.82C401.411,312.729,395.893,312.448,391.866,312.915L391.866,312.915z M404.339,323.213
			c7.6,1.556,14.386,5.141,19.534,10.319c5.003,5.033,7.668,10.103,9.199,17.502c0.703,3.398,0.767,9.84,0.125,12.562
			c-1.561,6.616-4.592,12.187-9.053,16.638c-2.601,2.595-5.365,4.51-9.656,6.69c-4.694,2.384-8.589,3.598-13.188,4.11
			c-2.839,0.316-2.734,0.322-2.124-0.108c0.92-0.647,1.526-2.162,1.651-4.129c0.097-1.52,0.031-1.983-0.41-2.884
			c-0.285-0.581-0.705-1.165-0.916-1.274c-0.233-0.12-1.866-0.016-4.035,0.256c-5.342,0.67-10.895,0.662-14.06-0.021
			c-6.572-1.418-12.859-4.821-17.033-9.221c-8.383-8.835-8.815-21.704-1.117-33.239c3.905-5.851,8.605-10.048,14.931-13.333
			c4.989-2.591,11.825-4.373,17.748-4.628C398.11,322.362,401.813,322.695,404.339,323.213L404.339,323.213z"/>
		<path style="fill:#F23207;" d="M392.783,331.899c-4.649,0.444-8.385,3.065-9.367,6.572c-0.832,2.973-0.216,7.728,1.193,9.209
			c1.403,1.475,3.067,1.793,4.218,0.805l0.626-0.537l-0.056-3.766c-0.048-3.263,0.008-3.946,0.422-5.108
			c0.668-1.878,1.511-2.886,2.987-3.574c1.168-0.545,1.341-0.565,2.593-0.306c3.04,0.629,6.085,2.946,7.452,5.668
			c0.718,1.431,0.841,1.906,0.841,3.241c0,3.604-1.52,5.514-6.348,7.978c-5.432,2.772-7.061,4.121-8.341,6.909
			c-0.793,1.729-0.972,4.247-0.567,7.98c0.333,3.062,0.634,3.679,2.023,4.14c1.162,0.385,3.249,0.18,4.023-0.395l0.648-0.481
			l0.135-4.202c0.156-4.873,0.401-5.8,1.97-7.443c1.318-1.381,3.103-2.531,5.562-3.583c5.052-2.161,7.575-4.098,8.932-6.856
			c0.708-1.439,0.769-1.743,0.769-3.8c0-2.012-0.072-2.387-0.725-3.755c-2.289-4.799-8.596-8.415-15.257-8.747
			C395.353,331.79,393.685,331.813,392.783,331.899L392.783,331.899z"/>
		<path style="fill:#F23207;" d="M390.044,374.65c-0.442,0.442-0.486,0.682-0.363,1.978c0.286,3.018,1.335,4.07,3.772,3.785
			c2.615-0.306,3.651-2.096,2.515-4.343c-0.796-1.574-1.442-1.922-3.565-1.922C390.816,374.147,390.475,374.219,390.044,374.65
			L390.044,374.65z"/>
	</g>
</g>
</svg>
